<svg width="24" height="24" viewBox="0 0 24 24" fill="none" xmlns="http://www.w3.org/2000/svg">
<g clip-path="url(#clip0_1345:7920)">
<path d="M7.91799 14.1501L10.545 24L1.85938 14.1501H7.91799Z" fill="black" fill-opacity="0.27"/>
<path d="M7.96818 12.743H1.85938L5.87485 8.72752C6.00712 8.59572 6.18582 8.52161 6.3725 8.52161H10.3805L7.96818 12.743Z" fill="black" fill-opacity="0.27"/>
<path d="M14.4125 12.743H9.58789L12.0002 8.52161L14.4125 12.743Z" fill="black" fill-opacity="0.27"/>
<path d="M14.6263 14.1501L11.9997 24L9.37305 14.1501H14.6263Z" fill="black" fill-opacity="0.27"/>
<path d="M16.0334 12.743L13.6211 8.52161H17.6291C17.8157 8.52161 17.9944 8.59572 18.1267 8.72752L22.1422 12.743H16.0334Z" fill="black" fill-opacity="0.27"/>
<path d="M16.084 14.1501H22.1427L13.457 24L16.084 14.1501Z" fill="black" fill-opacity="0.27"/>
<path d="M12.0004 4.01181C11.6119 4.01181 11.2969 3.6968 11.2969 3.30825V0.703564C11.2969 0.315009 11.6119 0 12.0004 0C12.389 0 12.704 0.315009 12.704 0.703564V3.30825C12.704 3.6968 12.389 4.01181 12.0004 4.01181Z" fill="black" fill-opacity="0.27"/>
<path d="M5.00808 5.46449L3.70573 3.20877C3.51141 2.87228 3.6267 2.44198 3.96324 2.24771C4.29973 2.05343 4.73007 2.16867 4.92431 2.50521L6.22665 4.76093C6.42097 5.09742 6.30568 5.52772 5.96914 5.72199C5.63406 5.91547 5.2032 5.80253 5.00808 5.46449Z" fill="black" fill-opacity="0.27"/>
<path d="M18.0336 5.72202C17.697 5.52774 17.5817 5.09744 17.776 4.76095L19.0784 2.50523C19.2727 2.16869 19.7029 2.0534 20.0395 2.24773C20.376 2.442 20.4913 2.8723 20.297 3.20879L18.9946 5.46451C18.7997 5.80203 18.369 5.91573 18.0336 5.72202Z" fill="black" fill-opacity="0.27"/>
</g>
<defs>
<clipPath id="clip0_1345:7920">
<rect width="24" height="24" fill="white"/>
</clipPath>
</defs>
</svg>
