<svg width="24" height="24" viewBox="0 0 24 24" fill="none" xmlns="http://www.w3.org/2000/svg">
<path d="M12 0C11.6114 0 11.2969 0.314484 11.2969 0.703125C11.2969 1.09177 11.6114 1.40625 12 1.40625C17.8159 1.40625 22.5938 6.18412 22.5938 12C22.5938 17.8159 17.8159 22.5938 12 22.5938C6.18412 22.5938 1.40625 17.8159 1.40625 12C1.40625 9.17264 2.6438 6.46402 4.64062 4.49292V5.67188C4.64062 6.06052 4.95511 6.375 5.34375 6.375C5.73239 6.375 6.04688 6.06052 6.04688 5.67188V2.85938C6.04688 2.47073 5.70895 2.15625 5.32031 2.15625H2.50781C2.11917 2.15625 1.80469 2.47073 1.80469 2.85938C1.80469 3.24802 2.11917 3.55781 2.50781 3.55781H3.56541C1.34498 5.78531 0 8.82797 0 12C0 18.5911 5.40891 24 12 24C18.5911 24 24 18.5911 24 12C24 5.40891 18.5911 0 12 0Z" fill="black" fill-opacity="0.27"/>
<path d="M19.0308 12.7031C18.6421 12.7031 18.3277 12.3887 18.3277 12C18.3277 11.6114 18.6421 11.2969 19.0308 11.2969H19.6983C19.5527 9.69175 18.9173 8.22672 17.9395 7.05438L17.4686 7.52533C17.1937 7.80016 16.749 7.80016 16.4742 7.52533C16.1994 7.2505 16.1994 6.8058 16.4742 6.53097L16.9452 6.06002C15.7728 5.08225 14.3077 4.44682 12.7027 4.30127V4.96877C12.7027 5.35741 12.3882 5.67189 11.9995 5.67189C11.6109 5.67189 11.2964 5.35741 11.2964 4.96877V4.30127C9.69127 4.44682 8.22623 5.08225 7.05389 6.06002L7.52484 6.53097C7.79967 6.8058 7.79967 7.2505 7.52484 7.52533C7.25011 7.80016 6.80531 7.80016 6.53048 7.52533L6.05953 7.05438C5.08177 8.22672 4.44633 9.6918 4.30078 11.2969H4.96828C5.35692 11.2969 5.67141 11.6114 5.67141 12C5.67141 12.3887 5.35692 12.7031 4.96828 12.7031H4.30078C4.44633 14.3083 5.08177 15.7732 6.05953 16.9456L6.53048 16.4746C6.80531 16.1999 7.25011 16.1999 7.52484 16.4746C7.79967 16.7494 7.79967 17.1942 7.52484 17.4691L7.05389 17.94C8.22623 18.9178 9.69131 19.5532 11.2964 19.6988V19.0313C11.2964 18.6426 11.6109 18.3281 11.9995 18.3281C12.3882 18.3281 12.7027 18.6426 12.7027 19.0313V19.6988C14.3078 19.5532 15.7728 18.9178 16.9452 17.94L16.4742 17.4691C16.1994 17.1942 16.1994 16.7494 16.4742 16.4746C16.749 16.1999 17.1937 16.1999 17.4686 16.4746L17.9395 16.9456C18.9173 15.7732 19.5527 14.3082 19.6983 12.7031H19.0308ZM13.9029 13.9034C13.6282 14.1781 13.1833 14.1781 12.9086 13.9034L11.5024 12.4971C11.3706 12.3653 11.2964 12.1868 11.2964 12V9.18752C11.2964 8.79888 11.6109 8.48439 11.9995 8.48439C12.3882 8.48439 12.7027 8.79888 12.7027 9.18752V11.7089L13.9029 12.9091C14.1775 13.1838 14.1775 13.6287 13.9029 13.9034Z" fill="black" fill-opacity="0.27"/>
</svg>
