<svg width="20" height="20" viewBox="0 0 20 20" fill="none" xmlns="http://www.w3.org/2000/svg">
<g clip-path="url(#clip0_1345:7903)">
<path d="M0.00329407 4.16462C-0.0132526 4.01325 0.035397 3.86199 0.137083 3.74865C0.238769 3.63531 0.383882 3.5706 0.536151 3.57069H2.85758C3.05482 3.57069 3.21472 3.41079 3.21472 3.21355C3.21472 3.0163 3.05482 2.8564 2.85758 2.8564H1.25044C1.09819 2.85676 0.952978 2.79233 0.851092 2.6792C0.749205 2.56606 0.700268 2.41493 0.716508 2.26355C0.762211 1.97891 1.01346 1.77337 1.30151 1.78497H3.57187C3.76911 1.78497 3.92901 1.62508 3.92901 1.42783C3.92901 1.23059 3.76911 1.07069 3.57187 1.07069H1.96472C1.81247 1.07105 1.66726 1.00661 1.56538 0.893482C1.46349 0.78035 1.41455 0.629211 1.43079 0.477831C1.47635 0.193114 1.7277 -0.0125066 2.01579 -0.000740274H7.30472C7.36982 -0.000246256 7.43354 0.0180314 7.48901 0.0521169L8.93329 0.917117C9.09951 1.01677 9.28949 1.06982 9.48329 1.07069H12.8576V4.24533L12.239 3.7389C11.7748 3.38461 11.1219 3.4205 10.6994 3.82355C10.3856 4.12782 10.2766 4.58631 10.4197 4.99926H9.22222C8.94114 5.00044 8.67179 5.11203 8.47222 5.30997L5.11115 8.64355L5.10401 8.65069L4.95544 8.79783C4.78122 8.96815 4.5023 8.96624 4.33044 8.79354C4.17357 8.63606 4.15827 8.38651 4.29472 8.21104L5.27687 7.01104C5.3642 6.90424 5.3822 6.75668 5.32311 6.63201C5.26402 6.50734 5.1384 6.42785 5.00044 6.42783H0.944365C0.656784 6.43906 0.406107 6.23377 0.360437 5.94962C0.344108 5.79836 0.392856 5.6473 0.494517 5.53413C0.596178 5.42095 0.741163 5.35633 0.893294 5.3564H2.85758C3.05482 5.3564 3.21472 5.1965 3.21472 4.99926C3.21472 4.80201 3.05482 4.64212 2.85758 4.64212H0.587223C0.299928 4.65324 0.0494339 4.4484 0.00329407 4.16462ZM5.94758 19.6393C5.79721 19.6555 5.64708 19.6066 5.53508 19.505C5.42256 19.4029 5.35814 19.2583 5.35758 19.1064V19.101V17.1421C5.35758 16.9449 5.19768 16.785 5.00044 16.785C4.80319 16.785 4.64329 16.9449 4.64329 17.1421V19.1064V19.1114V19.4132C4.6531 19.7018 4.44606 19.9523 4.16079 19.9971C4.01074 20.0135 3.86089 19.9645 3.74936 19.8628C3.63659 19.7607 3.57213 19.6157 3.57187 19.4635V18.7493V18.7421V17.1421C3.57187 16.9449 3.41197 16.785 3.21472 16.785C3.01748 16.785 2.85758 16.9449 2.85758 17.1421V18.7493V18.7535C2.85663 18.905 2.79162 19.0489 2.67865 19.1498C2.56568 19.2507 2.4153 19.299 2.26472 19.2828C1.98015 19.2373 1.77457 18.9862 1.78615 18.6982V18.035V18.0296V16.4278C1.78615 16.2306 1.62625 16.0707 1.42901 16.0707C1.23176 16.0707 1.07187 16.2306 1.07187 16.4278V18.035V18.0382C1.0712 18.1897 1.00638 18.3339 0.893452 18.435C0.780526 18.5361 0.630069 18.5846 0.479365 18.5685C0.194872 18.523 -0.0107717 18.2722 0.000436924 17.9843V12.6953C0.000987285 12.631 0.0178199 12.5678 0.0493655 12.5118L0.918294 11.0668C1.01774 10.9006 1.07078 10.7108 1.07187 10.5171V7.14212H4.24615L3.73936 7.76104C3.41264 8.15845 3.3894 8.72444 3.68245 9.14729C3.9755 9.57014 4.51362 9.74709 5.00044 9.58069V10.7778C5.00162 11.0589 5.11321 11.3283 5.31115 11.5278L8.64186 14.885C8.64579 14.8893 8.64972 14.8932 8.65401 14.8971L8.79936 15.0435C8.9245 15.1709 8.9609 15.361 8.89167 15.5256C8.82245 15.6902 8.66114 15.7971 8.48258 15.7968C8.38539 15.7972 8.29094 15.7646 8.21472 15.7043L7.01508 14.7225C6.90829 14.6333 6.75943 14.6142 6.63362 14.6736C6.50782 14.7331 6.42797 14.8601 6.42901 14.9993V19.0553C6.43889 19.3436 6.23242 19.594 5.94758 19.6393ZM19.9976 15.8339C20.0141 15.9853 19.9655 16.1365 19.8638 16.2499C19.7621 16.3632 19.617 16.4279 19.4647 16.4278H17.1433C16.946 16.4278 16.7861 16.5877 16.7861 16.785C16.7861 16.9822 16.946 17.1421 17.1433 17.1421H18.7504C18.9027 17.1418 19.0479 17.2062 19.1498 17.3193C19.2517 17.4325 19.3006 17.5836 19.2844 17.735C19.2387 18.0196 18.9874 18.2251 18.6994 18.2135H16.429C16.2318 18.2135 16.0719 18.3734 16.0719 18.5707C16.0719 18.7679 16.2318 18.9278 16.429 18.9278H18.0361C18.1884 18.9275 18.3336 18.9919 18.4355 19.105C18.5374 19.2182 18.5863 19.3693 18.5701 19.5207C18.5245 19.8054 18.2732 20.011 17.9851 19.9993H12.6961C12.6311 19.9988 12.5673 19.9805 12.5119 19.9464L11.0676 19.0814C10.9014 18.9817 10.7114 18.9287 10.5176 18.9278H7.14329V15.7525L7.76186 16.2589C8.22562 16.6146 8.87953 16.5786 9.30151 16.1743C9.61535 15.8704 9.72481 15.4122 9.58222 14.9993H10.7786C11.0597 14.9981 11.3291 14.8865 11.5286 14.6885L14.8886 11.3564L14.9011 11.3443L15.0465 11.2014C15.2207 11.0311 15.4996 11.033 15.6715 11.2057C15.8284 11.3632 15.8437 11.6127 15.7072 11.7882L14.7251 12.9882C14.6383 13.0949 14.6205 13.2419 14.6793 13.3662C14.738 13.4905 14.8629 13.57 15.0004 13.5707H19.0565C19.3441 13.5595 19.5948 13.7647 19.6404 14.0489C19.6568 14.2002 19.608 14.3512 19.5064 14.4644C19.4047 14.5776 19.2597 14.6422 19.1076 14.6421H17.1433C16.946 14.6421 16.7861 14.802 16.7861 14.9993C16.7861 15.1965 16.946 15.3564 17.1433 15.3564H19.4147C19.7016 15.3458 19.9515 15.5505 19.9976 15.8339ZM20.0004 7.30319C19.9999 7.36823 19.9817 7.43191 19.9479 7.48747L19.0826 8.93176C18.983 9.09786 18.9299 9.28772 18.929 9.4814V12.8564H15.7536L16.2604 12.2375C16.6283 11.7777 16.5915 11.1148 16.1751 10.6985C15.8631 10.3992 15.412 10.2952 15.0004 10.4278V9.22069C14.9993 8.93961 14.8877 8.67025 14.6897 8.47069L11.3576 5.10855L11.3508 5.10176L11.2033 4.95319C11.1196 4.87053 11.0729 4.75758 11.0737 4.63996C11.0745 4.52235 11.1228 4.41005 11.2076 4.32855C11.3672 4.17624 11.6134 4.16116 11.7904 4.29283L12.9901 5.27462C13.0968 5.36094 13.2435 5.3785 13.3675 5.31979C13.4916 5.26108 13.571 5.13649 13.5719 4.99926V0.943188C13.5608 0.655545 13.7662 0.404917 14.0504 0.35926C14.2016 0.34304 14.3526 0.391837 14.4657 0.493486C14.5788 0.595134 14.6433 0.740055 14.6433 0.892117V2.8564C14.6433 3.05365 14.8032 3.21355 15.0004 3.21355C15.1977 3.21355 15.3576 3.05365 15.3576 2.8564V0.586045C15.3464 0.298348 15.5519 0.0476253 15.8361 0.00211687C15.9873 -0.014103 16.1383 0.0346944 16.2514 0.136343C16.3645 0.237991 16.4291 0.382912 16.429 0.534974V2.8564C16.429 3.05365 16.5889 3.21355 16.7861 3.21355C16.9834 3.21355 17.1433 3.05365 17.1433 2.8564V1.24926C17.143 1.09707 17.2075 0.95196 17.3206 0.850153C17.4338 0.748346 17.5848 0.699455 17.7361 0.715688C18.0207 0.761227 18.2263 1.01237 18.2147 1.30033V3.57069C18.2147 3.76793 18.3746 3.92783 18.5719 3.92783C18.7691 3.92783 18.929 3.76793 18.929 3.57069V1.96355C18.9287 1.81136 18.9932 1.66625 19.1063 1.56444C19.2195 1.46263 19.3705 1.41374 19.5219 1.42997C19.8062 1.47565 20.0117 1.72648 20.0004 2.01426V7.30319Z" fill="black" fill-opacity="0.27"/>
</g>
<defs>
<clipPath id="clip0_1345:7903">
<rect width="20" height="20" fill="white"/>
</clipPath>
</defs>
</svg>
