<svg width="24" height="24" viewBox="0 0 24 24" fill="none" xmlns="http://www.w3.org/2000/svg">
<rect width="24" height="24" fill="white"/>
<path d="M1.5 5.25C1.69891 5.25 1.88968 5.17098 2.03033 5.03033C2.17098 4.88968 2.25 4.69891 2.25 4.5V2.25H4.5C4.69891 2.25 4.88968 2.17098 5.03033 2.03033C5.17098 1.88968 5.25 1.69891 5.25 1.5C5.25 1.30109 5.17098 1.11032 5.03033 0.96967C4.88968 0.829018 4.69891 0.75 4.5 0.75H1.5C1.30109 0.75 1.11032 0.829018 0.96967 0.96967C0.829018 1.11032 0.75 1.30109 0.75 1.5V4.5C0.75 4.69891 0.829018 4.88968 0.96967 5.03033C1.11032 5.17098 1.30109 5.25 1.5 5.25Z" fill="black" fill-opacity="0.27"/>
<path d="M19.5 2.25H21.75V4.5C21.75 4.69891 21.829 4.88968 21.9697 5.03033C22.1103 5.17098 22.3011 5.25 22.5 5.25C22.6989 5.25 22.8897 5.17098 23.0303 5.03033C23.171 4.88968 23.25 4.69891 23.25 4.5V1.5C23.25 1.30109 23.171 1.11032 23.0303 0.96967C22.8897 0.829018 22.6989 0.75 22.5 0.75H19.5C19.3011 0.75 19.1103 0.829018 18.9697 0.96967C18.829 1.11032 18.75 1.30109 18.75 1.5C18.75 1.69891 18.829 1.88968 18.9697 2.03033C19.1103 2.17098 19.3011 2.25 19.5 2.25Z" fill="black" fill-opacity="0.27"/>
<path d="M4.5 21.75H2.25V19.5C2.25 19.3011 2.17098 19.1103 2.03033 18.9697C1.88968 18.829 1.69891 18.75 1.5 18.75C1.30109 18.75 1.11032 18.829 0.96967 18.9697C0.829018 19.1103 0.75 19.3011 0.75 19.5V22.5C0.75 22.6989 0.829018 22.8897 0.96967 23.0303C1.11032 23.171 1.30109 23.25 1.5 23.25H4.5C4.69891 23.25 4.88968 23.171 5.03033 23.0303C5.17098 22.8897 5.25 22.6989 5.25 22.5C5.25 22.3011 5.17098 22.1103 5.03033 21.9697C4.88968 21.829 4.69891 21.75 4.5 21.75Z" fill="black" fill-opacity="0.27"/>
<path d="M22.5 18.75C22.3011 18.75 22.1103 18.829 21.9697 18.9697C21.829 19.1103 21.75 19.3011 21.75 19.5V21.75H19.5C19.3011 21.75 19.1103 21.829 18.9697 21.9697C18.829 22.1103 18.75 22.3011 18.75 22.5C18.75 22.6989 18.829 22.8897 18.9697 23.0303C19.1103 23.171 19.3011 23.25 19.5 23.25H22.5C22.6989 23.25 22.8897 23.171 23.0303 23.0303C23.171 22.8897 23.25 22.6989 23.25 22.5V19.5C23.25 19.3011 23.171 19.1103 23.0303 18.9697C22.8897 18.829 22.6989 18.75 22.5 18.75Z" fill="black" fill-opacity="0.27"/>
<path d="M12 15C13.6569 15 15 13.6569 15 12C15 10.3431 13.6569 9 12 9C10.3431 9 9 10.3431 9 12C9 13.6569 10.3431 15 12 15Z" fill="black" fill-opacity="0.27"/>
<path d="M23.1671 12.345C23.2223 12.2384 23.2512 12.1201 23.2512 12C23.2512 11.8799 23.2223 11.7616 23.1671 11.655C22.1412 9.55267 20.5566 7.77311 18.5869 6.51113C16.6172 5.24914 14.3383 4.55338 11.9996 4.5C9.66092 4.55338 7.38199 5.24914 5.41228 6.51113C3.44258 7.77311 1.85804 9.55267 0.832108 11.655C0.776875 11.7616 0.748047 11.8799 0.748047 12C0.748047 12.1201 0.776875 12.2384 0.832108 12.345C1.85804 14.4473 3.44258 16.2269 5.41228 17.4889C7.38199 18.7509 9.66092 19.4466 11.9996 19.5C14.3383 19.4466 16.6172 18.7509 18.5869 17.4889C20.5566 16.2269 22.1412 14.4473 23.1671 12.345ZM11.9996 16.5C11.1096 16.5 10.2396 16.2361 9.49954 15.7416C8.75952 15.2471 8.18274 14.5443 7.84215 13.7221C7.50156 12.8998 7.41244 11.995 7.58607 11.1221C7.75971 10.2492 8.18829 9.44736 8.81763 8.81802C9.44696 8.18868 10.2488 7.7601 11.1217 7.58647C11.9946 7.41283 12.8994 7.50195 13.7217 7.84254C14.544 8.18314 15.2468 8.75991 15.7412 9.49993C16.2357 10.24 16.4996 11.11 16.4996 12C16.4996 13.1935 16.0255 14.3381 15.1816 15.182C14.3377 16.0259 13.1931 16.5 11.9996 16.5Z" fill="black" fill-opacity="0.27"/>
</svg>
