<svg width="24" height="24" viewBox="0 0 24 24" fill="none" xmlns="http://www.w3.org/2000/svg">
<g clip-path="url(#clip0_1345:7907)">
<path d="M23.9105 22.89L18.6605 13.39C18.5205 13.14 18.3005 13.02 17.9905 13C17.7105 13 17.4605 13.16 17.3305 13.41L16.4805 15.07L20.4605 22.15C20.7805 22.71 20.8305 23.39 20.6105 24H23.2505C23.5205 24 23.7605 23.86 23.9005 23.63C24.0305 23.4 24.0305 23.12 23.9105 22.89Z" fill="#CF0000"/>
<path d="M19.1507 22.88L14.3607 14.35L12.4507 15.97C12.0507 16.31 11.5307 16.5 11.0007 16.5C10.4407 16.5 9.91069 16.3 9.50069 15.93C9.09069 16.3 8.56069 16.5 8.00069 16.5C7.47069 16.5 6.95069 16.31 6.54069 15.96L4.72069 14.42L0.090691 22.89C-0.039309 23.12 -0.029309 23.4 0.100691 23.63C0.240691 23.86 0.490691 24 0.750691 24H18.5007C18.7707 24 19.0107 23.86 19.1507 23.63C19.2807 23.4 19.2807 23.11 19.1507 22.88Z" fill="#CF0000"/>
<path d="M15.25 5H9.5C9.086 5 8.75 4.664 8.75 4.25V0.75C8.75 0.336 9.086 0 9.5 0H15.25C15.543 0 15.809 0.17 15.931 0.437C16.054 0.703 16.01 1.016 15.819 1.239L14.738 2.5L15.82 3.762C16.011 3.985 16.054 4.298 15.932 4.564C15.809 4.83 15.543 5 15.25 5Z" fill="#CF0000"/>
<path d="M9.5 8C9.086 8 8.75 7.664 8.75 7.25V0.75C8.75 0.336 9.086 0 9.5 0C9.914 0 10.25 0.336 10.25 0.75V7.25C10.25 7.664 9.914 8 9.5 8Z" fill="#CF0000"/>
<path d="M13.6092 13.02L11.4792 14.82C11.3392 14.94 11.1692 15 10.9992 15C10.8092 15 10.6192 14.93 10.4692 14.78L9.49922 13.81L8.52922 14.78C8.24922 15.06 7.80922 15.07 7.51922 14.82L5.44922 13.08L6.18922 11.74L8.83922 6.89001C8.96922 6.65001 9.21922 6.50001 9.49922 6.50001C9.74921 6.47001 10.0192 6.64001 10.1492 6.88001L12.8592 11.69L13.6092 13.02Z" fill="#CF0000"/>
</g>
<defs>
<clipPath id="clip0_1345:7907">
<rect width="24" height="24" fill="white"/>
</clipPath>
</defs>
</svg>
